<svg xmlns="http://www.w3.org/2000/svg" viewBox="0 0 200 310">
  <!-- Left Ear - rounded -->
  <ellipse cx="75" cy="42" rx="12" ry="50" fill="#FFF" stroke="#333" stroke-width="2.8"/>
  <!-- Right Ear - rounded -->
  <ellipse cx="125" cy="42" rx="12" ry="50" fill="#FFF" stroke="#333" stroke-width="2.8"/>

  <!-- === Dress body === -->
  <!-- Dress main: collar → A-line skirt -->
  <path d="
    M 78,170
    L 72,172
    L 56,182
    C 52,184 48,188 46,192
    L 46,192
    L 46,196
    C 46,196 52,196 58,194
    L 52,270
    C 54,278 70,290 100,290
    C 130,290 146,278 148,270
    L 142,194
    C 148,196 154,196 154,196
    L 154,192
    C 152,188 148,184 144,182
    L 128,172
    L 122,170
    Z
  " fill="#FF7F2A" stroke="#333" stroke-width="2.8" stroke-linejoin="round"/>

  <!-- Collar line -->
  <path d="M78,170 C85,175 95,177 100,177 C105,177 115,175 122,170" fill="none" stroke="#333" stroke-width="2" stroke-linecap="round"/>

  <!-- Left arm from sleeve -->
  <path d="M46,192 C38,194 32,198 30,204 C28,210 32,214 38,214 C44,214 50,210 52,204" fill="#FFF" stroke="#333" stroke-width="2.8" stroke-linejoin="round"/>

  <!-- Right arm from sleeve -->
  <path d="M154,192 C162,194 168,198 170,204 C172,210 168,214 162,214 C156,214 150,210 148,204" fill="#FFF" stroke="#333" stroke-width="2.8" stroke-linejoin="round"/>

  <!-- Skirt hem line -->
  <path d="M52,270 C60,274 78,280 100,280 C122,280 140,274 148,270" fill="none" stroke="#333" stroke-width="1.5" opacity="0.3"/>

  <!-- Left Foot -->
  <ellipse cx="78" cy="292" rx="16" ry="9" fill="#FFF" stroke="#333" stroke-width="2.5"/>
  <!-- Right Foot -->
  <ellipse cx="122" cy="292" rx="16" ry="9" fill="#FFF" stroke="#333" stroke-width="2.5"/>

  <!-- Head -->
  <circle cx="100" cy="120" r="60" fill="#FFF" stroke="#333" stroke-width="2.8"/>
  <!-- Left Eye -->
  <circle cx="80" cy="112" r="4" fill="#333"/>
  <!-- Right Eye -->
  <circle cx="120" cy="112" r="4" fill="#333"/>
  <!-- X Mouth -->
  <line x1="95" y1="132" x2="105" y2="140" stroke="#333" stroke-width="2" stroke-linecap="round"/>
  <line x1="105" y1="132" x2="95" y2="140" stroke="#333" stroke-width="2" stroke-linecap="round"/>
</svg>
