<svg xmlns="http://www.w3.org/2000/svg" viewBox="0 0 200 310">
  <defs>
    <radialGradient id="bl" cx="0.35" cy="0.3" r="0.6">
      <stop offset="0%" stop-color="#FF8A8A"/>
      <stop offset="100%" stop-color="#E84040"/>
    </radialGradient>
  </defs>
  <!-- Left Ear -->
  <path d="M80,82 C80,22 72,0 72,0 C68,0 60,22 60,82" fill="#FFF" stroke="#333" stroke-width="2.8" stroke-linejoin="round"/>
  <!-- Right Ear -->
  <path d="M120,82 C120,22 128,0 128,0 C132,0 140,22 140,82" fill="#FFF" stroke="#333" stroke-width="2.8" stroke-linejoin="round"/>

  <!-- Dress -->
  <path d="M 78,170 L 72,172 L 56,182 C 52,184 48,188 46,192 L 46,196 C 46,196 52,196 58,194 L 52,270 C 54,278 70,290 100,290 C 130,290 146,278 148,270 L 142,194 C 148,196 154,196 154,196 L 154,192 C 152,188 148,184 144,182 L 128,172 L 122,170 Z" fill="#4A90D9" stroke="#333" stroke-width="2.8" stroke-linejoin="round"/>
  <path d="M78,170 C85,175 95,177 100,177 C105,177 115,175 122,170" fill="none" stroke="#333" stroke-width="2" stroke-linecap="round"/>

  <!-- Left arm -->
  <path d="M46,192 C38,194 32,198 30,204 C28,210 32,214 38,214 C44,214 50,210 52,204" fill="#FFF" stroke="#333" stroke-width="2.8" stroke-linejoin="round"/>
  <!-- Right arm (holding string) -->
  <path d="M154,192 C162,194 168,198 170,204 C172,210 168,214 162,214 C156,214 150,210 148,204" fill="#FFF" stroke="#333" stroke-width="2.8" stroke-linejoin="round"/>

  <path d="M52,270 C60,274 78,280 100,280 C122,280 140,274 148,270" fill="none" stroke="#333" stroke-width="1.5" opacity="0.3"/>

  <!-- Left Foot -->
  <ellipse cx="78" cy="292" rx="16" ry="9" fill="#FFF" stroke="#333" stroke-width="2.5"/>
  <!-- Right Foot -->
  <ellipse cx="122" cy="292" rx="16" ry="9" fill="#FFF" stroke="#333" stroke-width="2.5"/>

  <!-- Head -->
  <circle cx="100" cy="120" r="60" fill="#FFF" stroke="#333" stroke-width="2.8"/>
  <!-- Left Eye -->
  <circle cx="80" cy="112" r="4" fill="#333"/>
  <!-- Right Eye -->
  <circle cx="120" cy="112" r="4" fill="#333"/>
  <!-- X Mouth -->
  <line x1="95" y1="132" x2="105" y2="140" stroke="#333" stroke-width="2" stroke-linecap="round"/>
  <line x1="105" y1="132" x2="95" y2="140" stroke="#333" stroke-width="2" stroke-linecap="round"/>

  <!-- Balloon String -->
  <path d="M166,210 C170,180 174,130 172,90 C171,72 169,60 167,52" fill="none" stroke="#333" stroke-width="1.5"/>
  <!-- Balloon -->
  <ellipse cx="167" cy="32" rx="22" ry="26" fill="url(#bl)" stroke="#333" stroke-width="2"/>
  <ellipse cx="160" cy="22" rx="6" ry="4" fill="#FFF" opacity="0.3" transform="rotate(-20,160,22)"/>
  <polygon points="167,58 164,63 170,63" fill="#E84040" stroke="#333" stroke-width="1"/>
</svg>
