<svg xmlns="http://www.w3.org/2000/svg" viewBox="0 0 200 310">
  <defs>
    <radialGradient id="bL" cx="0.5" cy="0.5" r="0.5">
      <stop offset="0%" stop-color="#FF9AAA" stop-opacity="0.5"/>
      <stop offset="100%" stop-color="#FF9AAA" stop-opacity="0"/>
    </radialGradient>
    <linearGradient id="dress" x1="0" y1="0" x2="0" y2="1">
      <stop offset="0%" stop-color="#7ACC7A"/>
      <stop offset="100%" stop-color="#66BB6A"/>
    </linearGradient>
  </defs>
  <!-- Left Ear -->
  <ellipse cx="72" cy="32" rx="16" ry="42" fill="#FFF" stroke="#555" stroke-width="2.5" transform="rotate(-6,72,32)"/>
  <ellipse cx="72" cy="32" rx="8" ry="28" fill="#FFD0D9" transform="rotate(-6,72,32)" opacity="0.7"/>
  <!-- Right Ear -->
  <ellipse cx="128" cy="32" rx="16" ry="42" fill="#FFF" stroke="#555" stroke-width="2.5" transform="rotate(6,128,32)"/>
  <ellipse cx="128" cy="32" rx="8" ry="28" fill="#FFD0D9" transform="rotate(6,128,32)" opacity="0.7"/>
  <!-- Daisy on left ear 🌼 -->
  <g transform="translate(55,25)">
    <ellipse cx="0" cy="-6" rx="4" ry="6" fill="#FFF" opacity="0.9"/>
    <ellipse cx="5" cy="-3" rx="4" ry="6" fill="#FFF" opacity="0.9" transform="rotate(72,5,-3)"/>
    <ellipse cx="4" cy="4" rx="4" ry="6" fill="#FFF" opacity="0.9" transform="rotate(144,4,4)"/>
    <ellipse cx="-4" cy="4" rx="4" ry="6" fill="#FFF" opacity="0.9" transform="rotate(216,-4,4)"/>
    <ellipse cx="-5" cy="-3" rx="4" ry="6" fill="#FFF" opacity="0.9" transform="rotate(288,-5,-3)"/>
    <circle cx="0" cy="0" r="3.5" fill="#FFD93D"/>
  </g>
  <!-- Head -->
  <circle cx="100" cy="105" r="62" fill="#FFF" stroke="#555" stroke-width="2.5"/>
  <!-- L Eye -->
  <ellipse cx="80" cy="96" rx="4" ry="5" fill="#2D3436"/>
  <circle cx="78.5" cy="94.5" r="1.5" fill="#FFF" opacity="0.85"/>
  <!-- R Eye -->
  <ellipse cx="120" cy="96" rx="4" ry="5" fill="#2D3436"/>
  <circle cx="118.5" cy="94.5" r="1.5" fill="#FFF" opacity="0.85"/>
  <!-- Blush -->
  <circle cx="60" cy="114" r="11" fill="url(#bL)"/>
  <circle cx="140" cy="114" r="11" fill="url(#bL)"/>
  <!-- Nose -->
  <circle cx="100" cy="112" r="2" fill="#C9888A"/>
  <!-- X Mouth -->
  <line x1="94" y1="120" x2="100" y2="126" stroke="#555" stroke-width="2" stroke-linecap="round"/>
  <line x1="106" y1="120" x2="100" y2="126" stroke="#555" stroke-width="2" stroke-linecap="round"/>
  <line x1="94" y1="126" x2="100" y2="120" stroke="#555" stroke-width="2" stroke-linecap="round"/>
  <line x1="106" y1="126" x2="100" y2="120" stroke="#555" stroke-width="2" stroke-linecap="round"/>
  <!-- Dress -->
  <path d="M62,162 C58,162 52,185 50,210 C48,240 52,255 60,265 C70,278 85,284 100,284 C115,284 130,278 140,265 C148,255 152,240 150,210 C148,185 142,162 138,162 Z" fill="url(#dress)" stroke="#555" stroke-width="2.5"/>
  <path d="M75,170 C72,180 70,200 72,220 C74,230 80,240 90,245" fill="none" stroke="#FFF" stroke-width="3" opacity="0.15" stroke-linecap="round"/>
  <!-- Leaf & clover pattern -->
  <g opacity="0.3" fill="#FFF">
    <ellipse cx="90" cy="215" rx="3" ry="7" transform="rotate(-20,90,215)"/>
    <ellipse cx="95" cy="213" rx="3" ry="7" transform="rotate(20,95,213)"/>
    <ellipse cx="92" cy="218" rx="3" ry="7" transform="rotate(90,92,218)"/>
    <line x1="92" y1="220" x2="92" y2="230" stroke="#FFF" stroke-width="1.5"/>
  </g>
  <!-- Left Arm -->
  <ellipse cx="46" cy="200" rx="14" ry="10" fill="#FFF" stroke="#555" stroke-width="2.5" transform="rotate(-15,46,200)"/>
  <!-- Right Arm -->
  <ellipse cx="154" cy="200" rx="14" ry="10" fill="#FFF" stroke="#555" stroke-width="2.5" transform="rotate(15,154,200)"/>
  <!-- Left Foot -->
  <ellipse cx="78" cy="290" rx="16" ry="9" fill="#FFF" stroke="#555" stroke-width="2.5"/>
  <!-- Right Foot -->
  <ellipse cx="122" cy="290" rx="16" ry="9" fill="#FFF" stroke="#555" stroke-width="2.5"/>
</svg>
